<?xml version="1.0" encoding="UTF-8" standalone="no"?>
<!-- Created with Inkscape (http://www.inkscape.org/) -->

<svg
   width="100"
   height="100"
   viewBox="0 0 26.458332 26.458333"
   version="1.1"
   id="svg5"
   xml:space="preserve"
   sodipodi:docname="fav.svg"
   inkscape:version="1.2.2 (732a01da63, 2022-12-09)"
   xmlns:inkscape="http://www.inkscape.org/namespaces/inkscape"
   xmlns:sodipodi="http://sodipodi.sourceforge.net/DTD/sodipodi-0.dtd"
   xmlns="http://www.w3.org/2000/svg"
   xmlns:svg="http://www.w3.org/2000/svg"><sodipodi:namedview
     id="namedview7"
     pagecolor="#ffffff"
     bordercolor="#000000"
     borderopacity="0.25"
     inkscape:showpageshadow="2"
     inkscape:pageopacity="0.0"
     inkscape:pagecheckerboard="0"
     inkscape:deskcolor="#d1d1d1"
     inkscape:document-units="mm"
     showgrid="false"
     inkscape:zoom="5.7200011"
     inkscape:cx="50.087403"
     inkscape:cy="49.99999"
     inkscape:window-width="1291"
     inkscape:window-height="775"
     inkscape:window-x="204"
     inkscape:window-y="223"
     inkscape:window-maximized="0"
     inkscape:current-layer="layer1" /><defs
     id="defs2" /><g
     inkscape:label="Layer 1"
     inkscape:groupmode="layer"
     id="layer1"><rect
       style="fill:#ffffff;fill-opacity:1;stroke-width:37.1836"
       id="rect2626"
       width="26.458334"
       height="26.458334"
       x="1.7763568e-15"
       y="0"
       ry="8.8811207" /><path
       id="path1016"
       style="fill:#000000;fill-opacity:1;stroke-width:0.525598"
       d="M 11.416004,5.292477 C 10.610008,5.3000016 10.024132,5.3608858 9.5596997,5.4816129 8.6307736,5.723082 8.1131489,6.1387146 7.9098924,6.8064942 7.8468759,7.0135276 7.8066959,7.4740944 7.7805991,8.2904355 7.754143,9.1180453 7.7089753,9.2740543 7.4069819,9.574389 7.1261233,9.8537062 6.7015537,10.009714 5.875926,10.137146 c -0.3600446,0.05557 -0.3791343,0.0618 -0.4635335,0.152859 -0.099326,0.107163 -0.139078,0.303 -0.1128603,0.555935 0.034331,0.331184 0.1033623,0.3775 0.7308016,0.489273 0.8110458,0.144481 1.0658026,0.244056 1.3964916,0.546013 0.3085934,0.281782 0.3223764,0.344585 0.3683464,1.692922 0.035636,1.045218 0.067798,1.276791 0.2204497,1.587811 0.2606487,0.531058 0.7528072,0.872159 1.5493492,1.073424 0.2965033,0.07492 0.7798973,0.152188 1.0796143,0.172702 0.321477,0.02201 1.578604,0.01604 1.83522,-0.0087 0.438825,-0.04231 0.569711,-0.07698 0.670652,-0.177974 0.07503,-0.07507 0.09153,-0.116694 0.108209,-0.272542 0.01081,-0.101114 0.01076,-0.247597 0,-0.325871 -0.01607,-0.116917 -0.03608,-0.15513 -0.111931,-0.213011 -0.103942,-0.0793 -0.263168,-0.102402 -1.014502,-0.147882 -0.330096,-0.01999 -0.469717,-0.04067 -0.596238,-0.08806 -0.203013,-0.07606 -0.413845,-0.275311 -0.458261,-0.432842 -0.04814,-0.170709 -0.07983,-0.559704 -0.09922,-1.220701 -0.0099,-0.336617 -0.02863,-0.76529 -0.04186,-0.952501 -0.02155,-0.305241 -0.03331,-0.357694 -0.11348,-0.508187 C 10.654419,11.74305 10.267897,11.392196 9.8660336,11.190726 9.5445671,11.029562 9.0115625,10.876153 8.4903156,10.79478 8.3301489,10.76977 8.1928394,10.74319 8.1852206,10.73556 8.1568226,10.70715 8.2513086,10.67477 8.4165222,10.6565 8.8715666,10.60617 9.462778,10.432919 9.8660336,10.23141 10.462644,9.9332797 10.81231,9.5690904 10.900689,9.1542655 c 0.01973,-0.092632 0.05442,-0.5826352 0.07689,-1.0889265 0.02247,-0.5062882 0.04812,-0.9394585 0.05705,-0.9627326 0.02459,-0.064086 0.267762,-0.077606 1.410447,-0.077826 h 1.021944 V 6.1761446 5.3278237 l -0.201536,-0.00186 c -0.110874,-9.9e-4 -0.545874,-0.011634 -0.966444,-0.023565 -0.321241,-0.00911 -0.614374,-0.01243 -0.883039,-0.00992 z M 14.3944,5.327824 v 0.8483207 0.848631 h 0.66259 0.662589 V 6.1761446 5.3278237 H 15.05699 Z m 2.242634,0 v 0.8427398 0.8427399 l 0.924587,0.033796 c 0.914369,0.03348 1.199133,0.063054 1.550279,0.1599903 0.4778,0.1319058 0.948571,0.4021853 1.230302,0.706624 0.181729,0.1963758 0.404887,0.5577532 0.487408,0.7897198 C 20.8966,8.8917467 20.90309,8.8098029 20.86557,8.256639 20.755224,6.6290533 20.237599,5.8712012 19.00059,5.5265714 18.568963,5.4063205 17.776561,5.3291386 16.963833,5.3281338 Z m -2.245424,4.733358 c -0.59411,0.0038 -0.815218,0.03395 -0.971095,0.10945 -0.156134,0.07562 -0.193573,0.152278 -0.216109,0.442764 -0.01535,0.197915 -0.01032,0.252302 0.03163,0.333004 0.08372,0.161083 0.187164,0.199986 0.601508,0.227272 0.650776,0.04285 1.003631,0.07865 1.110931,0.112242 0.223492,0.06997 0.434314,0.333708 0.474075,0.593142 0.0094,0.06121 0.03044,0.512176 0.04651,1.0018 0.03519,1.072064 0.05713,1.276588 0.16216,1.500685 0.15109,0.322357 0.575622,0.701991 1.008922,0.902271 0.403018,0.186284 1.016115,0.353295 1.491367,0.406487 0.09561,0.0107 0.180924,0.03085 0.189445,0.04465 0.0085,0.01379 0.0053,0.02504 -0.0071,0.02512 -0.121981,7.2e-4 -0.986299,0.187535 -1.21635,0.26293 -0.585731,0.191961 -1.127547,0.547117 -1.365176,0.894519 -0.169397,0.247654 -0.207147,0.435778 -0.239052,1.193417 -0.01482,0.351914 -0.0358,0.789975 -0.04651,0.973584 l -0.01922,0.333934 -1.21666,0.0071 -1.21666,0.0071 v 0.861963 0.861653 l 0.924588,0.0074 c 1.4343,0.01137 2.099517,-0.0095 2.495639,-0.07813 1.090248,-0.188916 1.702,-0.530644 2.014123,-1.124893 0.152585,-0.290509 0.177983,-0.45303 0.224791,-1.432782 0.04759,-0.996392 0.06299,-1.11716 0.16836,-1.325191 0.235938,-0.46582 0.809188,-0.752212 1.740963,-0.869715 0.514244,-0.06485 0.582824,-0.124371 0.601819,-0.521829 0.01358,-0.284313 -0.03606,-0.462178 -0.149757,-0.536712 -0.07593,-0.04978 -0.296532,-0.100612 -0.735142,-0.169602 -0.589795,-0.09275 -0.976504,-0.261413 -1.266579,-0.552811 -0.25375,-0.254907 -0.284622,-0.342893 -0.317497,-0.89855 -0.01519,-0.25679 -0.04035,-0.767287 -0.05581,-1.134505 -0.03455,-0.819904 -0.05769,-0.972376 -0.186991,-1.237689 -0.216426,-0.444079 -0.637964,-0.758294 -1.327345,-0.989085 -0.548376,-0.183585 -0.789168,-0.210964 -2.003892,-0.226963 -0.292288,-0.0038 -0.531832,-0.0053 -0.729871,-0.004 z m -8.8077566,7.548691 -0.00806,0.236574 c -0.016369,0.468821 0.1402572,1.404438 0.2988938,1.785009 0.2300693,0.551938 0.645247,0.945153 1.2485951,1.182564 0.499004,0.196354 0.9843428,0.275329 1.9226563,0.31223 0.3135156,0.01232 0.6107159,0.02433 0.660419,0.02666 l 0.090226,0.004 V 20.311094 19.464943 L 9.567141,19.449452 C 9.4409702,19.440944 9.1022384,19.426872 8.8143254,19.418136 7.8720503,19.389551 7.3496653,19.297037 6.864384,19.07273 6.2923123,18.808307 5.8587584,18.356716 5.6613674,17.820092 Z m 5.1704916,1.822216 v 0.862583 0.862274 h 0.662589 0.66259 v -0.862274 -0.862583 h -0.66259 z" /></g></svg>
