<?xml version="1.0" encoding="UTF-8" standalone="no"?>
<!-- Created with Inkscape (http://www.inkscape.org/) -->

<svg
   width="500"
   height="100"
   viewBox="0 0 132.29166 26.458333"
   version="1.1"
   id="svg5"
   xml:space="preserve"
   sodipodi:docname="logo.svg"
   inkscape:version="1.2.2 (732a01da63, 2022-12-09)"
   xmlns:inkscape="http://www.inkscape.org/namespaces/inkscape"
   xmlns:sodipodi="http://sodipodi.sourceforge.net/DTD/sodipodi-0.dtd"
   xmlns="http://www.w3.org/2000/svg"
   xmlns:svg="http://www.w3.org/2000/svg"><sodipodi:namedview
     id="namedview7"
     pagecolor="#ffffff"
     bordercolor="#000000"
     borderopacity="0.25"
     inkscape:showpageshadow="2"
     inkscape:pageopacity="0.0"
     inkscape:pagecheckerboard="0"
     inkscape:deskcolor="#d1d1d1"
     inkscape:document-units="px"
     showgrid="false"
     inkscape:zoom="2.42"
     inkscape:cx="250"
     inkscape:cy="50"
     inkscape:window-width="1350"
     inkscape:window-height="717"
     inkscape:window-x="176"
     inkscape:window-y="284"
     inkscape:window-maximized="0"
     inkscape:current-layer="layer1" /><defs
     id="defs2" /><g
     inkscape:label="Layer 1"
     inkscape:groupmode="layer"
     id="layer1"><path
       id="path1656"
       style="fill:#20c997;fill-opacity:1;stroke-width:1.43997"
       d="m 60.049968,2.9518091 c -0.715087,0.00241 -1.433576,0.2422859 -1.932872,0.6899352 -0.439286,0.3938428 -0.776543,1.0106241 -4.089244,7.4783547 -3.109537,6.071067 -4.39596,8.660958 -5.247106,10.564653 -0.663663,1.484346 -0.712865,1.647781 -0.671021,2.227384 0.06205,0.859479 0.510337,1.572139 1.279959,2.034555 0.320692,0.192684 0.712993,0.370519 0.871758,0.39499 0.158764,0.02447 4.641334,0.05213 9.960808,0.06117 l 9.671602,0.01607 0.661708,-0.353001 c 0.773678,-0.413157 1.214176,-0.961797 1.463623,-1.82151 L 72.193017,23.646219 71.78016,22.592397 C 71.375678,21.560199 68.039474,14.857336 65.169284,9.3105105 62.366495,3.8939356 62.204506,3.640015 61.284916,3.210988 60.906851,3.0346047 60.47902,2.9503848 60.049968,2.9518091 Z m 0.0026,9.2340339 c 0.155363,0.04491 4.221476,8.061172 4.22945,8.338306 0.0052,0.1796 -0.269073,0.19231 -4.270839,0.19231 h -4.276531 l 0.07657,-0.246737 c 0.202708,-0.655523 4.125563,-8.317348 4.24135,-8.283879 z m 43.625172,8.574677 c -0.338,0.0056 -0.68765,0.06896 -1.0399,0.200086 -0.68638,0.255501 -1.19237,0.702888 -1.53295,1.356544 -0.25267,0.484957 -0.2654,0.547791 -0.2654,1.303151 0,0.732777 0.0175,0.826866 0.2297,1.228508 0.41016,0.776506 1.04626,1.285291 1.89562,1.517235 0.61846,0.16889 1.3588,0.103279 1.96857,-0.174687 0.66494,-0.303115 1.11444,-0.726985 1.4243,-1.342548 1.00644,-1.999419 -0.61442,-4.12242 -2.67994,-4.088289 z" /><path
       id="path235"
       style="fill:#ff80bd;fill-opacity:1;stroke-width:2.07051"
       d="m 103.68134,0.001315 c -0.0881,0.0018858 -0.17785,0.00598841 -0.27006,0.01192266 -1.07952,0.0694124 -1.73797,0.40693961 -2.17551,1.11602484 -0.32331,0.5239349 -0.32486,0.533439 -0.41959,2.9007324 -0.1362,3.4037687 -0.008,11.1428861 0.19557,11.8304871 0.21444,0.723541 0.85263,1.316813 1.68918,1.571143 0.15402,0.04682 0.53641,0.08967 0.84952,0.09486 1.31447,0.02177 2.33797,-0.459776 2.76634,-1.301079 0.21603,-0.424303 0.22143,-0.620802 0.22143,-7.4633186 0,-6.7400346 -0.008,-7.0444597 -0.21212,-7.4446607 -0.4668,-0.91676473 -1.32372,-1.34442474 -2.64476,-1.3161117 z M 42.117099,2.9108582 c -0.426436,0.00271 -0.858174,0.052963 -1.203389,0.1498056 -0.624612,0.1752167 -1.399318,0.8792101 -1.515877,1.3777969 -0.04127,0.1765308 -0.104486,1.8805838 -0.140723,3.7871263 l -0.06571,3.466778 -1.052319,0.06946 c -0.57872,0.0384 -1.668215,0.07087 -2.420745,0.07153 -2.461528,0.0022 -3.26964,0.28737 -3.814008,1.347212 -0.22175,0.431733 -0.268284,0.680858 -0.266959,1.424967 0.0034,1.915412 0.871023,2.813274 2.722887,2.818311 0.487017,0.0013 1.775271,0.03465 2.863091,0.07413 l 1.977883,0.07153 0.03725,3.575115 0.03776,3.574597 0.295414,0.493994 c 0.312941,0.522876 0.714229,0.816591 1.44655,1.058488 0.290662,0.09603 0.760548,0.130411 1.343076,0.09849 0.983327,-0.05389 1.578818,-0.285891 2.054453,-0.799826 0.576705,-0.623147 0.584941,-0.72983 0.652915,-8.473079 C 45.142174,8.7223402 45.050388,4.7232573 44.771692,4.1932769 44.514661,3.7044812 43.882932,3.2160846 43.28686,3.045113 42.964322,2.9525986 42.543535,2.9080947 42.117099,2.9108582 Z m 51.245933,0.019701 c -1.475609,0.00481 -2.280232,0.4088099 -2.7084,1.3596542 -0.254077,0.5642337 -0.261418,0.666809 -0.296449,4.0608187 l -0.03569,3.4818109 h -2.541292 c -2.930964,0 -3.604334,0.110425 -4.214964,0.690972 -0.574269,0.545971 -0.775493,1.0906 -0.777082,2.10557 -0.0021,1.407152 0.54773,2.309876 1.627626,2.672135 0.22228,0.07456 1.152101,0.124406 2.309513,0.124406 1.065574,0 2.307905,0.03164 2.760655,0.06997 l 0.823126,0.06946 0.04915,3.533645 0.04915,3.533646 0.282481,0.482074 c 0.377533,0.645447 0.633859,0.860581 1.316691,1.104621 0.431233,0.154117 0.797746,0.19609 1.467246,0.167948 1.110054,-0.04666 1.797702,-0.363845 2.281056,-1.052786 l 0.329044,-0.469632 0.03208,-9.915151 C 96.138928,8.0878064 96.112057,4.8989605 96.030041,4.5939708 95.74289,3.525524 94.78195,2.9259356 93.36303,2.9305588 Z M 77.92903,2.959588 C 77.057567,2.9560773 76.519315,3.1326411 76.012715,3.5671038 75.134569,4.3202092 75.178724,3.730779 75.178724,14.739278 v 9.76068 l 0.246782,0.502807 c 0.327004,0.664883 0.664311,0.965235 1.363772,1.216068 0.437557,0.156914 0.778457,0.195919 1.399469,0.160172 1.46647,-0.08441 2.164053,-0.554785 2.615792,-1.76449 0.227331,-0.608737 0.230227,-0.731566 0.230227,-10.039556 0,-9.2775746 -0.0035,-9.4324236 -0.227123,-10.0032767 -0.431821,-1.1023481 -1.084815,-1.5227345 -2.483863,-1.599653 -0.138964,-0.00762 -0.270255,-0.011937 -0.39475,-0.012438 z m -62.546712,0.00411 c -0.803756,9.178e-4 -1.737126,0.00522 -2.805149,0.01296 C 6.5189063,3.020603 6.3008573,3.02945 5.3987447,3.2690129 3.9293627,3.6592195 2.6148347,4.3469529 1.8263466,5.137698 0.54363567,6.4240819 0.03523255,7.8580917 0.03523255,10.188064 c 0,2.318664 0.50945357,3.765721 1.77197155,5.030664 0.9533827,0.955214 2.4198776,1.661238 4.1383942,1.992567 0.3311127,0.06384 2.2535169,0.180874 4.2718737,0.260215 3.300998,0.129763 3.71351,0.166931 4.104766,0.366998 0.836907,0.427948 1.100841,1.044006 0.778116,1.817881 -0.137989,0.330889 -0.293975,0.467871 -0.804502,0.706004 l -0.633253,0.294946 -5.9657238,0.116112 c -5.7338891,0.111398 -5.9820603,0.124966 -6.4028961,0.346782 -0.55618526,0.293155 -0.7561114,0.517094 -1.04662732,1.175117 -0.3587988,0.812682 -0.32372964,1.999091 0.0822608,2.794467 0.25544924,0.500451 0.41127765,0.659353 0.89555702,0.912828 l 0.5861734,0.306869 h 6.159735 c 6.766782,0 7.082542,-0.02412 8.873309,-0.673347 2.031457,-0.736479 3.366933,-2.108218 3.989912,-4.09762 0.34959,-1.116383 0.34912,-3.60283 -0.001,-4.715502 -0.890484,-2.829513 -2.729612,-4.245994 -6.338259,-4.88187 -0.385042,-0.06785 -2.189229,-0.16188 -4.009053,-0.208898 C 7.3716638,11.651812 7.1472174,11.632001 6.6678382,11.399493 5.4709453,10.818974 5.570215,9.4567401 6.8483984,8.9196689 7.2657943,8.7442857 7.9366505,8.7146787 13.325795,8.6304246 l 6.011252,-0.09434 0.537024,-0.2923548 C 20.700813,7.7928957 20.980535,7.2280612 21.028827,5.9142279 21.064508,4.943346 21.045416,4.8260132 20.758245,4.2658481 20.422092,3.6101271 19.966822,3.2396059 19.265134,3.0502979 19.039714,2.989481 17.793583,2.9609733 15.382318,2.9637318 Z m 11.772098,0 c -0.169318,-0.00421 -0.348864,-0.0013 -0.539094,0.00772 -1.21243,0.057778 -1.845104,0.4017662 -2.274331,1.2373221 l -0.279894,0.5447939 -0.02949,9.842066 -0.02949,9.842063 0.234366,0.500215 c 0.279777,0.596344 0.948705,1.200879 1.503459,1.358617 h 5.18e-4 c 0.6522,0.185447 2.117477,0.07543 2.68874,-0.201642 0.689017,-0.334188 1.125588,-0.86781 1.233912,-1.508422 0.04888,-0.289055 0.08923,-4.89321 0.0895,-10.231348 L 29.753127,4.6498687 29.479439,4.1605393 C 29.03048,3.3578124 28.339638,2.9935073 27.154416,2.9636546 Z M 129.25982,2.981844 c -1.22772,-0.063726 -2.10287,0.3683364 -2.48905,1.2430236 -0.19481,0.4412596 -0.21541,0.8739529 -0.27833,5.8517474 -0.0374,2.956402 -0.10702,5.375372 -0.1547,5.375372 -0.0477,0 -1.59993,-1.887392 -3.44978,-4.194553 -3.55074,-4.4285295 -5.75823,-7.1067876 -6.18767,-7.5073822 -0.55834,-0.5208323 -1.27382,-0.7416662 -2.39022,-0.7376248 -1.4913,0.00542 -2.41216,0.4489412 -2.83153,1.3632823 -0.15674,0.3417226 -0.17945,1.4608804 -0.21058,10.1992167 l -0.0351,9.815107 0.30732,0.602851 c 0.34805,0.682742 0.97214,1.140853 1.78956,1.313518 0.2682,0.05661 0.89842,0.08251 1.40051,0.05754 1.17541,-0.05847 1.74066,-0.358341 2.10825,-1.119135 0.24896,-0.515245 0.25173,-0.562871 0.29852,-5.868848 0.0488,-5.528867 0.0644,-5.701456 0.4708,-5.143148 0.22683,0.311562 6.62891,8.180451 8.10658,9.963877 1.6417,1.9814 1.94158,2.166971 3.48186,2.153258 1.17385,-0.01045 1.75487,-0.180265 2.41609,-0.704966 0.2806,-0.222668 0.46055,-0.475106 0.52771,-0.741252 0.13626,-0.539925 0.16974,-3.511806 0.14331,-12.651044 l -0.0222,-7.640601 -0.3606,-0.4748158 c -0.47827,-0.629062 -1.06701,-0.9375123 -2.09326,-1.0973657 -0.18937,-0.029501 -0.37198,-0.048951 -0.54736,-0.058059 z" /></g></svg>
