<?xml version="1.0" encoding="UTF-8" standalone="no"?>
<!-- Created with Inkscape (http://www.inkscape.org/) -->

<svg
   width="500"
   height="100"
   viewBox="0 0 132.29166 26.458333"
   version="1.1"
   id="svg5"
   xml:space="preserve"
   sodipodi:docname="logo-white.svg"
   inkscape:version="1.2.2 (732a01da63, 2022-12-09)"
   xmlns:inkscape="http://www.inkscape.org/namespaces/inkscape"
   xmlns:sodipodi="http://sodipodi.sourceforge.net/DTD/sodipodi-0.dtd"
   xmlns="http://www.w3.org/2000/svg"
   xmlns:svg="http://www.w3.org/2000/svg"><sodipodi:namedview
     id="namedview7"
     pagecolor="#ffffff"
     bordercolor="#000000"
     borderopacity="0.25"
     inkscape:showpageshadow="2"
     inkscape:pageopacity="0.0"
     inkscape:pagecheckerboard="0"
     inkscape:deskcolor="#d1d1d1"
     inkscape:document-units="px"
     showgrid="false"
     inkscape:zoom="1.2586498"
     inkscape:cx="234.37814"
     inkscape:cy="150.95541"
     inkscape:window-width="1350"
     inkscape:window-height="717"
     inkscape:window-x="176"
     inkscape:window-y="285"
     inkscape:window-maximized="0"
     inkscape:current-layer="layer1" /><defs
     id="defs2" /><g
     inkscape:label="Layer 1"
     inkscape:groupmode="layer"
     id="layer1"><path
       id="path1642"
       style="fill:#f9f9f9;fill-opacity:1;stroke-width:1.43692"
       d="m 103.6765,0 c -1.79624,0 -2.73198,0.7464303 -2.91903,2.3283577 -0.10155,0.8579941 -0.098,11.9830483 0.003,12.8486933 0.0921,0.781959 0.25396,1.178828 0.65783,1.613464 0.34498,0.371276 0.75962,0.596301 1.34414,0.729589 0.24972,0.05694 0.70957,0.08454 1.11821,0.06709 1.23893,-0.05293 2.03843,-0.497405 2.48517,-1.381635 l 0.2138,-0.423091 V 8.8096838 1.8369079 L 106.36387,1.3873035 C 106.11863,0.8780422 105.93073,0.6573567 105.53183,0.4097543 105.07689,0.1273771 104.50021,0 103.67622,0 Z M 42.047049,2.8894445 c -0.16262,0.00561 -0.328601,0.019564 -0.496921,0.042245 -0.801215,0.1079625 -1.263377,0.3147515 -1.656023,0.7408484 -0.63596,0.6901408 -0.627378,0.6315627 -0.671789,4.5748609 l -0.03927,3.4863882 -2.621859,0.04344 c -2.859867,0.04746 -3.208086,0.09163 -3.872291,0.490891 -0.730677,0.439218 -1.101524,1.243809 -1.101524,2.389689 0,1.402092 0.541309,2.301793 1.634338,2.716311 0.281155,0.106625 0.763478,0.132174 3.146705,0.166825 l 2.814631,0.04096 0.0386,3.523841 0.03852,3.523841 0.21651,0.449687 c 0.119088,0.247297 0.290546,0.526142 0.380946,0.619702 0.267611,0.276959 0.804678,0.54635 1.315323,0.659791 0.669294,0.148687 1.818699,0.08991 2.403949,-0.122987 0.827486,-0.30102 1.355233,-0.997383 1.501444,-1.981134 0.0492,-0.33106 0.07802,-3.914562 0.07819,-9.70929 C 45.156697,4.2759242 45.175475,4.660576 44.638342,3.8991591 44.160293,3.2215125 43.185393,2.850152 42.04704,2.8894445 Z m 51.160662,0.00495 c -0.58374,0.012263 -1.16572,0.1239613 -1.60214,0.3320519 -0.62801,0.2994426 -0.92747,0.6725143 -1.15622,1.4404101 -0.1741,0.5844145 -0.17832,0.6747452 -0.17832,3.8514213 v 3.2529612 h -2.38375 c -3.08378,0 -3.76554,0.113138 -4.42819,0.7347 -0.64129,0.601536 -0.91969,1.609944 -0.75572,2.737234 0.15433,1.061138 0.65434,1.746241 1.5214,2.084469 0.44523,0.173684 0.5184,0.17822 3.24732,0.201484 l 2.79179,0.0238 0.0229,3.463389 c 0.0228,3.450919 0.0236,3.464911 0.20682,3.907083 0.3337,0.805171 0.98787,1.316585 1.86539,1.458139 1.53209,0.247149 2.78915,-0.110188 3.36797,-0.957346 0.46856,-0.685738 0.44338,-0.07344 0.44338,-10.76638 0,-9.2967078 -0.008,-9.8427438 -0.14006,-10.2122404 -0.17425,-0.4857939 -0.73761,-1.0851711 -1.20944,-1.2867617 -0.44374,-0.1895917 -1.02931,-0.2766807 -1.61307,-0.2644119 z M 26.96051,2.9241015 c -1.519834,0 -2.399022,0.5254513 -2.806335,1.6771908 -0.16203,0.4581623 -0.162546,0.4905605 -0.162546,10.0940497 v 9.634384 l 0.176262,0.495681 c 0.29859,0.839834 0.935036,1.372002 1.870807,1.564351 0.188937,0.03884 0.675608,0.05692 1.081564,0.04016 0.999393,-0.04124 1.523568,-0.235068 2.047729,-0.75706 0.724765,-0.721766 0.663438,0.141775 0.737579,-10.377786 C 29.972058,5.8613415 29.955082,4.9997039 29.691031,4.3777624 29.278187,3.4053859 28.374105,2.9241032 26.96051,2.9241015 Z m 51.047231,0 c -1.56738,0 -2.53862,0.6611576 -2.81159,1.9140514 -0.17334,0.7956081 -0.17076,19.0315771 0.003,19.7539891 0.2225,0.926125 0.88261,1.560863 1.83179,1.76144 1.32961,0.280968 2.75351,-0.05244 3.36059,-0.786926 0.13043,-0.157801 0.32467,-0.540329 0.43162,-0.850096 l 0.19442,-0.563242 V 14.633054 5.1127885 l -0.1841,-0.5285043 C 80.621441,3.9749545 80.423461,3.7100951 79.937781,3.3860056 79.481111,3.08128 78.824321,2.9241032 78.007751,2.9241032 Z m -17.864779,0.00726 C 59.1987,2.9140355 58.243188,3.2995459 57.720696,3.9933212 57.391245,4.4307713 51.016598,16.851422 49.476807,20.056086 c -0.501144,1.042996 -1.258278,2.758899 -1.385959,3.141078 -0.212471,0.635973 0.03764,1.575207 0.605832,2.275171 0.254046,0.31297 0.840542,0.685041 1.352777,0.858161 0.368195,0.124438 0.991317,0.13154 10.148864,0.11555 l 9.7565,-0.01701 0.53011,-0.253791 c 0.89185,-0.426917 1.3632,-1.021192 1.63047,-2.05572 0.12397,-0.479841 0.12335,-0.488096 -0.0784,-1.031774 -0.22743,-0.613043 -0.52769,-1.297508 -0.98455,-2.244425 -0.16911,-0.350513 -0.50046,-1.042199 -0.73635,-1.537039 -0.23588,-0.494841 -2.06855,-4.089686 -4.07253,-7.988578 -4.01671,-7.8147794 -3.91973,-7.6532455 -4.8617,-8.1041179 -0.38282,-0.1832369 -0.80973,-0.2743447 -1.238939,-0.2822202 z m -42.757024,0.00726 c -1.00555,-0.00857 -2.487003,-0.00632 -4.575785,0.00568 -4.8717559,0.027978 -5.8962999,0.052358 -6.4985029,0.1545267 -0.887565,0.1505829 -1.854221,0.4338997 -2.5835,0.7572193 -1.943875,0.861802 -3.18573202,2.4478459 -3.57964302,4.5717463 -0.172778,0.931606 -0.1703,2.7166402 0.005,3.5918022 0.527298,2.632246 2.08695702,4.243187 4.86810402,5.028217 1.226362,0.346165 2.153722,0.430898 5.3979669,0.493447 3.277606,0.06319 3.632802,0.106213 4.241246,0.513011 0.169646,0.113425 0.371092,0.323418 0.447642,0.466694 0.190305,0.356191 0.14714,1.009419 -0.08797,1.330445 -0.247294,0.337656 -1.007057,0.675905 -1.709167,0.760972 -0.318096,0.03854 -2.955373,0.09039 -5.8606319,0.11515 -5.108374,0.04356 -5.298679,0.05029 -5.779817,0.204039 -0.94047202,0.300536 -1.45666802,0.971325 -1.63261502,2.121524 -0.101866,0.665853 0.0052,1.522256 0.255197,2.039271 0.275421,0.569793 0.77655702,0.972315 1.48936902,1.196362 0.244095,0.07672 1.59572,0.09263 6.477559,0.07603 6.0246099,-0.02049 6.1862799,-0.02484 6.9017079,-0.184552 1.111482,-0.248137 1.749428,-0.449102 2.438117,-0.76808 1.749428,-0.810286 2.896236,-2.17834 3.403297,-4.059854 0.189543,-0.703323 0.207916,-0.893695 0.208378,-2.158418 4.77e-4,-1.267018 -0.0178,-1.457088 -0.211171,-2.196193 -0.20475,-0.782583 -0.619161,-1.720053 -0.989572,-2.238597 -1.039233,-1.454825 -2.756671,-2.371225 -5.255787,-2.804474 -1.002102,-0.173725 -1.340427,-0.193495 -3.911634,-0.228156 -1.5480619,-0.02087 -3.0363249,-0.07169 -3.3072839,-0.113 -0.938504,-0.143075 -1.492963,-0.550826 -1.595321,-1.173204 -0.124526,-0.7571342 0.398331,-1.3125612 1.509574,-1.6034812 0.249543,-0.06533 1.960717,-0.102941 6.0920089,-0.133922 l 5.744991,-0.04312 0.46267,-0.210188 C 20.004846,8.3338768 20.31166,8.1482878 20.43218,8.0371278 21.359153,7.1821419 21.478609,5.0252099 20.662411,3.8800877 20.369645,3.4693421 19.722454,3.1024355 19.106273,2.9979807 18.921149,2.9665987 18.39149,2.9472187 17.385938,2.9386457 Z m 96.791372,0.032184 c -0.13191,0.00481 -0.26717,0.015001 -0.40608,0.030346 -0.94902,0.104845 -1.47303,0.3141694 -1.94711,0.7779027 -0.70707,0.6916415 -0.6552,-0.172701 -0.6552,10.9220238 v 9.735485 l 0.1646,0.427802 c 0.31824,0.826991 1.07081,1.358755 2.15008,1.519231 0.61432,0.09135 1.79341,0.05044 2.15794,-0.07483 0.41536,-0.142719 0.81578,-0.425868 1.03123,-0.729189 0.42636,-0.600284 0.43391,-0.711172 0.43391,-6.369524 0,-4.354868 0.0171,-5.196576 0.10522,-5.176275 0.0579,0.01332 0.47522,0.479707 0.92748,1.036404 0.45224,0.556697 1.19336,1.467642 1.6469,2.024337 0.45353,0.556696 1.34321,1.65323 1.97708,2.436726 0.63388,0.783499 1.46962,1.81253 1.8571,2.286751 0.38748,0.474222 1.21874,1.495719 1.84724,2.269981 0.62849,0.774264 1.27506,1.51791 1.4368,1.652514 0.70372,0.585665 1.60696,0.806607 2.74127,0.670572 0.96695,-0.115962 1.51095,-0.332705 2.00223,-0.797785 0.70501,-0.667412 0.65648,0.176625 0.63253,-10.999008 l -0.021,-9.778279 -0.16485,-0.3465862 c -0.48041,-1.0101959 -1.4838,-1.4980735 -3.09807,-1.5063733 -0.8011,-0.00411 -1.17384,0.085398 -1.66038,0.398734 -0.36263,0.2335382 -0.48597,0.3985345 -0.77881,1.0418356 -0.14788,0.3248242 -0.15453,0.5363289 -0.17873,5.6793859 -0.0139,2.938116 -0.0548,5.342062 -0.0909,5.342062 -0.0362,0 -0.23427,-0.215558 -0.44009,-0.479071 -0.20582,-0.263514 -0.91205,-1.143997 -1.56945,-1.956536 -0.65739,-0.812542 -1.40353,-1.73875 -1.65799,-2.058277 -3.30097,-4.1447926 -5.70776,-7.0548192 -6.0084,-7.2647389 -0.7484,-0.5225577 -1.51112,-0.7493334 -2.43459,-0.7156129 z M 60.050149,12.236093 c 0.116762,0.03784 0.18705,0.167742 1.351952,2.4967 0.57753,1.154628 1.46218,2.922243 1.96584,3.928006 0.50366,1.005763 0.91573,1.874498 0.91573,1.930583 0,0.08474 -0.71664,0.101975 -4.241242,0.101975 -2.541289,0 -4.24133,-0.02776 -4.24133,-0.06924 0,-0.0782 0.720302,-1.533684 2.544402,-5.141539 0.688017,-1.360811 1.33465,-2.653913 1.436968,-2.873552 0.102322,-0.219639 0.222813,-0.387481 0.26768,-0.37294 z" /><path
       style="fill:#f9f9f9;fill-opacity:1;stroke-width:1.43692"
       d="m 102.91958,26.351099 c -0.84837,-0.23123 -1.48333,-0.738648 -1.89301,-1.512767 -0.2119,-0.400408 -0.22949,-0.49428 -0.22949,-1.224805 0,-0.753039 0.0128,-0.815639 0.26518,-1.299106 0.34019,-0.651646 0.84524,-1.097898 1.53082,-1.352614 2.50198,-0.929555 4.88549,1.557164 3.71572,3.876611 -0.3095,0.613671 -0.7587,1.036205 -1.42287,1.338388 -0.60906,0.277112 -1.34861,0.342665 -1.96635,0.174293 z"
       id="path1656" /></g></svg>
