<?xml version="1.0" encoding="UTF-8" standalone="no"?>
<!-- Created with Inkscape (http://www.inkscape.org/) -->

<svg
   width="620"
   height="100"
   viewBox="0 0 164.04166 26.458333"
   version="1.1"
   id="svg5"
   xml:space="preserve"
   sodipodi:docname="logo-white.svg"
   inkscape:version="1.2.2 (732a01da63, 2022-12-09)"
   xmlns:inkscape="http://www.inkscape.org/namespaces/inkscape"
   xmlns:sodipodi="http://sodipodi.sourceforge.net/DTD/sodipodi-0.dtd"
   xmlns="http://www.w3.org/2000/svg"
   xmlns:svg="http://www.w3.org/2000/svg"><sodipodi:namedview
     id="namedview7"
     pagecolor="#ffffff"
     bordercolor="#000000"
     borderopacity="0.25"
     inkscape:showpageshadow="2"
     inkscape:pageopacity="0.0"
     inkscape:pagecheckerboard="0"
     inkscape:deskcolor="#d1d1d1"
     inkscape:document-units="px"
     showgrid="false"
     inkscape:zoom="0.85559921"
     inkscape:cx="220.89782"
     inkscape:cy="74.801378"
     inkscape:window-width="1350"
     inkscape:window-height="717"
     inkscape:window-x="176"
     inkscape:window-y="284"
     inkscape:window-maximized="0"
     inkscape:current-layer="layer1" /><defs
     id="defs2" /><g
     inkscape:label="Layer 1"
     inkscape:groupmode="layer"
     id="layer1"><path
       id="path1656"
       style="fill:#f9f9f9;fill-opacity:1;stroke-width:1.43997"
       d="m 91.799967,2.9518091 c -0.715087,0.00241 -1.433576,0.2422859 -1.932872,0.6899352 -0.439286,0.3938428 -0.776543,1.0106241 -4.089244,7.4783547 -3.109537,6.071067 -4.39596,8.660958 -5.247106,10.564653 -0.663663,1.484346 -0.712865,1.647781 -0.671021,2.227384 0.06205,0.859479 0.510337,1.572139 1.279959,2.034555 0.320692,0.192684 0.712993,0.370519 0.871758,0.39499 0.158764,0.02447 4.641334,0.05213 9.960808,0.06117 l 9.671601,0.01607 0.66171,-0.353001 c 0.77368,-0.413157 1.21417,-0.961797 1.46362,-1.82151 l 0.17384,-0.598191 -0.41286,-1.053822 C 103.12568,21.560199 99.78947,14.857336 96.91928,9.3105105 94.11649,3.8939356 93.9545,3.640015 93.03491,3.210988 92.65685,3.0346047 92.22902,2.9503848 91.799967,2.9518091 Z m 0.0026,9.2340339 c 0.155363,0.04491 4.221473,8.061172 4.229453,8.338306 0.005,0.1796 -0.26908,0.19231 -4.270842,0.19231 h -4.276531 l 0.07657,-0.246737 c 0.202708,-0.655523 4.125563,-8.317348 4.24135,-8.283879 z m 43.625173,8.574677 c -0.338,0.0056 -0.68765,0.06896 -1.0399,0.200086 -0.68638,0.255501 -1.19237,0.702888 -1.53295,1.356544 -0.25267,0.484957 -0.2654,0.547791 -0.2654,1.303151 0,0.732777 0.0175,0.826866 0.2297,1.228508 0.41016,0.776506 1.04626,1.285291 1.89562,1.517235 0.61846,0.16889 1.3588,0.103279 1.96857,-0.174687 0.66494,-0.303115 1.11444,-0.726985 1.4243,-1.342548 1.00644,-1.999419 -0.61442,-4.12242 -2.67994,-4.088289 z" /><path
       id="path235"
       style="fill:#f9f9f9;fill-opacity:1;stroke-width:2.07051"
       d="m 135.43134,0.001315 c -0.0881,0.0018858 -0.17785,0.00598841 -0.27006,0.01192266 -1.07952,0.0694124 -1.73797,0.40693961 -2.17551,1.11602484 -0.32331,0.5239349 -0.32486,0.533439 -0.41959,2.9007324 -0.1362,3.4037687 -0.008,11.1428861 0.19557,11.8304871 0.21444,0.723541 0.85263,1.316813 1.68918,1.571143 0.15402,0.04682 0.53641,0.08967 0.84952,0.09486 1.31447,0.02177 2.33797,-0.459776 2.76634,-1.301079 0.21603,-0.424303 0.22143,-0.620802 0.22143,-7.4633186 0,-6.7400346 -0.008,-7.0444597 -0.21212,-7.4446607 -0.4668,-0.91676473 -1.32372,-1.34442474 -2.64476,-1.3161117 z M 73.867098,2.9108582 c -0.426436,0.00271 -0.858174,0.052963 -1.203389,0.1498056 -0.624612,0.1752167 -1.399318,0.8792101 -1.515877,1.3777969 -0.04127,0.1765308 -0.104486,1.8805838 -0.140723,3.7871263 l -0.06571,3.466778 -1.052319,0.06946 c -0.57872,0.0384 -1.668215,0.07087 -2.420745,0.07153 -2.461528,0.0022 -3.26964,0.28737 -3.814008,1.347212 -0.22175,0.431733 -0.268284,0.680858 -0.266959,1.424967 0.0034,1.915412 0.871023,2.813274 2.722887,2.818311 0.487017,0.0013 1.775271,0.03465 2.863091,0.07413 l 1.977883,0.07153 0.03725,3.575115 0.03776,3.574597 0.295414,0.493994 c 0.312941,0.522876 0.714229,0.816591 1.44655,1.058488 0.290662,0.09603 0.760548,0.130411 1.343076,0.09849 0.983327,-0.05389 1.578818,-0.285891 2.054453,-0.799826 0.576705,-0.623147 0.584941,-0.72983 0.652915,-8.473079 C 76.892173,8.7223402 76.800387,4.7232573 76.521691,4.1932769 76.26466,3.7044812 75.632931,3.2160846 75.036859,3.045113 74.714321,2.9525986 74.293534,2.9080947 73.867098,2.9108582 Z m 51.245932,0.019701 c -1.47561,0.00481 -2.28023,0.4088099 -2.7084,1.3596542 -0.25408,0.5642337 -0.26142,0.666809 -0.29645,4.0608187 l -0.0357,3.4818109 h -2.54129 c -2.93096,0 -3.60433,0.110425 -4.21496,0.690972 -0.57427,0.545971 -0.7755,1.0906 -0.77709,2.10557 -0.002,1.407152 0.54773,2.309876 1.62763,2.672135 0.22228,0.07456 1.1521,0.124406 2.30951,0.124406 1.06558,0 2.30791,0.03164 2.76066,0.06997 l 0.82312,0.06946 0.0491,3.533645 0.0491,3.533646 0.28248,0.482074 c 0.37754,0.645447 0.63386,0.860581 1.3167,1.104621 0.43123,0.154117 0.79774,0.19609 1.46724,0.167948 1.11006,-0.04666 1.7977,-0.363845 2.28106,-1.052786 l 0.32904,-0.469632 0.0321,-9.915151 c 0.022,-6.8619146 -0.005,-10.0507605 -0.0869,-10.3557502 -0.28715,-1.0684468 -1.24809,-1.6680352 -2.66701,-1.663412 z m -15.434,0.029029 c -0.87146,-0.00351 -1.40972,0.1730531 -1.91632,0.6075158 -0.87814,0.7531054 -0.83399,0.1636752 -0.83399,11.172174 v 9.76068 l 0.24678,0.502807 c 0.32701,0.664883 0.66432,0.965235 1.36378,1.216068 0.43755,0.156914 0.77845,0.195919 1.39947,0.160172 1.46647,-0.08441 2.16405,-0.554785 2.61579,-1.76449 0.22733,-0.608737 0.23022,-0.731566 0.23022,-10.039556 0,-9.2775744 -0.004,-9.4324234 -0.22712,-10.0032765 -0.43182,-1.1023481 -1.08481,-1.5227345 -2.48386,-1.599653 -0.13897,-0.00762 -0.27026,-0.011937 -0.39475,-0.012438 z m -62.546713,0.00411 c -0.803756,9.178e-4 -1.737126,0.00522 -2.805149,0.01296 -6.058263,0.043945 -6.276312,0.052792 -7.178424,0.2923549 -1.469382,0.3902066 -2.78391,1.07794 -3.572398,1.8686851 -1.282711,1.2863839 -1.791114,2.7203937 -1.791114,5.0503658 0,2.318664 0.509453,3.765721 1.771971,5.030664 0.953383,0.955214 2.419878,1.661238 4.138394,1.992567 0.331113,0.06384 2.253517,0.180874 4.271874,0.260215 3.300998,0.129763 3.71351,0.166931 4.104766,0.366998 0.836907,0.427948 1.100841,1.044006 0.778116,1.817881 -0.137989,0.330889 -0.293975,0.467871 -0.804502,0.706004 l -0.633253,0.294946 -5.965724,0.116112 c -5.733889,0.111398 -5.98206,0.124966 -6.402896,0.346782 -0.556185,0.293155 -0.756111,0.517094 -1.046627,1.175117 -0.358799,0.812682 -0.32373,1.999091 0.08226,2.794467 0.255449,0.500451 0.411277,0.659353 0.895557,0.912828 l 0.586173,0.306869 h 6.159735 c 6.766782,0 7.082542,-0.02412 8.873309,-0.673347 2.031457,-0.736479 3.366933,-2.108218 3.989912,-4.09762 0.34959,-1.116383 0.34912,-3.60283 -10e-4,-4.715502 -0.890484,-2.829513 -2.729612,-4.245994 -6.338259,-4.88187 -0.385042,-0.06785 -2.189229,-0.16188 -4.009053,-0.208898 -3.114323,-0.08047 -3.33877,-0.100276 -3.818149,-0.332784 -1.196893,-0.580519 -1.097623,-1.9427527 0.18056,-2.4798239 0.417396,-0.1753832 1.088252,-0.2049902 6.477397,-0.2892443 L 51.087045,8.5360848 51.624069,8.24373 C 52.450812,7.7928957 52.730534,7.2280612 52.778826,5.9142279 52.814507,4.943346 52.795415,4.8260132 52.508244,4.2658481 52.172091,3.6101271 51.716821,3.2396059 51.015133,3.0502979 50.789713,2.989481 49.543582,2.9609733 47.132317,2.9637318 Z m 11.772098,0 c -0.169318,-0.00421 -0.348864,-0.0013 -0.539094,0.00772 -1.21243,0.057778 -1.845104,0.4017662 -2.274331,1.2373221 l -0.279894,0.5447939 -0.02949,9.8420658 -0.02949,9.842063 0.234366,0.500215 c 0.279777,0.596344 0.948705,1.200879 1.503459,1.358617 h 5.18e-4 c 0.6522,0.185447 2.117477,0.07543 2.68874,-0.201642 0.689017,-0.334188 1.125588,-0.86781 1.233912,-1.508422 0.04888,-0.289055 0.08923,-4.89321 0.0895,-10.231348 L 61.503126,4.6498687 61.229438,4.1605393 C 60.780479,3.3578124 60.089637,2.9935073 58.904415,2.9636546 Z M 161.00982,2.981844 c -1.22772,-0.063726 -2.10287,0.3683364 -2.48905,1.2430236 -0.19481,0.4412596 -0.21541,0.8739529 -0.27833,5.8517474 -0.0374,2.956402 -0.10702,5.375372 -0.1547,5.375372 -0.0477,0 -1.59993,-1.887392 -3.44978,-4.194553 -3.55074,-4.4285295 -5.75823,-7.1067876 -6.18767,-7.5073822 -0.55834,-0.5208323 -1.27382,-0.7416662 -2.39022,-0.7376248 -1.4913,0.00542 -2.41216,0.4489412 -2.83153,1.3632823 -0.15674,0.3417226 -0.17945,1.4608804 -0.21058,10.1992167 l -0.0351,9.815107 0.30732,0.602851 c 0.34805,0.682742 0.97214,1.140853 1.78956,1.313518 0.2682,0.05661 0.89842,0.08251 1.40051,0.05754 1.17541,-0.05847 1.74066,-0.358341 2.10825,-1.119135 0.24896,-0.515245 0.25173,-0.562871 0.29852,-5.868848 0.0488,-5.528867 0.0644,-5.701456 0.4708,-5.143148 0.22683,0.311562 6.62891,8.180451 8.10658,9.963877 1.6417,1.9814 1.94158,2.166971 3.48186,2.153258 1.17385,-0.01045 1.75487,-0.180265 2.41609,-0.704966 0.2806,-0.222668 0.46055,-0.475106 0.52771,-0.741252 0.13626,-0.539925 0.16974,-3.511806 0.14331,-12.651044 l -0.0222,-7.640601 -0.3606,-0.4748158 c -0.47827,-0.629062 -1.06701,-0.9375123 -2.09326,-1.0973657 -0.18937,-0.029501 -0.37198,-0.048951 -0.54736,-0.058059 z" /><path
       id="path1016"
       style="fill:#f9f9f9;fill-opacity:1;stroke-width:0.765188"
       d="M 2.8960741,6.7171367 C 1.9330069,7.424943 1.2898611,7.995995 0.85436181,8.5225434 -0.01669415,9.5757115 -0.21366209,10.44918 0.22672507,11.30667 c 0.13653072,0.265854 0.56071964,0.770387 1.36691953,1.625466 0.8173256,0.866887 0.9230116,1.065196 0.8674466,1.633784 -0.051672,0.528794 -0.4029572,1.05669 -1.2666094,1.903844 -0.37662833,0.369429 -0.39322711,0.392364 -0.40144648,0.558534 -0.009678,0.195559 0.14339334,0.429779 0.43450268,0.664917 0.3811696,0.307882 0.5118375,0.295142 1.3822306,-0.135934 1.1250939,-0.557221 1.5341009,-0.676988 2.2422238,-0.656354 0.6608093,0.01926 0.7418509,0.07132 2.1807216,1.406268 1.1154035,1.034831 1.3917505,1.243026 1.8947368,1.427563 0.85884,0.31509 1.8016072,0.235372 2.9674972,-0.251348 0.43399,-0.181173 1.095485,-0.522303 1.477521,-0.761745 0.409777,-0.256822 1.917768,-1.35496 2.20146,-1.603103 0.485117,-0.424348 0.607187,-0.573396 0.625135,-0.764065 0.01334,-0.141725 -0.0095,-0.198502 -0.149321,-0.371906 -0.09073,-0.112497 -0.241097,-0.261816 -0.334369,-0.332285 -0.139319,-0.105261 -0.202629,-0.126843 -0.353379,-0.119971 -0.206559,0.0094 -0.42204,0.124193 -1.373632,0.730492 -0.418089,0.266365 -0.607467,0.366569 -0.808481,0.428151 -0.322557,0.0988 -0.780937,0.07877 -0.996073,-0.04327 -0.233141,-0.132253 -0.67045,-0.501378 -1.37204,-1.158542 C 10.454449,15.152521 9.9920365,14.73168 9.7840086,14.552277 9.4448509,14.259748 9.3768657,14.216478 9.125889,14.132666 8.5976107,13.956262 7.772069,13.934268 7.0813301,14.077926 6.5287797,14.192844 5.7294046,14.49943 5.018107,14.869255 c -0.2185716,0.113633 -0.4112246,0.205809 -0.4282289,0.204647 -0.063356,-0.0043 0.017225,-0.119398 0.197463,-0.281545 0.4964254,-0.446612 1.0307258,-1.136851 1.309653,-1.69263 C 6.5096612,12.277461 6.5571196,11.602352 6.2379216,11.102588 6.1666388,10.990995 5.705636,10.46121 5.2132038,9.9254339 4.720775,9.3896604 4.3072001,8.9256813 4.2940744,8.8941922 4.2579296,8.8074791 4.5369399,8.582453 5.9129934,7.5895927 L 7.1438495,6.7018427 6.2730856,5.8365073 5.4026397,4.9714881 5.1579546,5.1446226 C 5.0233998,5.2399276 4.4885567,5.6069574 3.9697596,5.9601263 3.5735117,6.2299049 3.2170378,6.4811502 2.8960469,6.7171158 Z M 6.5196038,4.1658876 7.3900497,5.0309069 8.2608136,5.8962422 9.0588539,5.3206589 9.8568936,4.7450763 8.9861263,3.8797379 8.1156804,3.0147186 7.3176409,3.5903014 Z M 9.2206903,2.21774 l 0.8647187,0.8593284 0.86472,0.8593284 1.148278,-0.7687117 c 1.135643,-0.7601621 1.508961,-0.9773804 2.03136,-1.1835688 0.710819,-0.2805559 1.555157,-0.4139096 2.206861,-0.3482144 0.420376,0.042376 1.059955,0.2170118 1.397362,0.3818597 0.27391,0.1338262 0.197645,0.044632 -0.415138,-0.486826 C 15.515914,-0.0328316 14.114855,-0.3559466 12.271351,0.36721394 11.628094,0.61953765 10.59451,1.2291868 9.6146086,1.9341685 Z m 2.1523607,6.7771002 c -0.711664,0.519969 -0.947035,0.7427881 -1.057307,0.9551828 -0.11046,0.21274 -0.0769,0.323429 0.194024,0.63921 0.184592,0.215144 0.246453,0.266234 0.379788,0.312081 0.266118,0.09153 0.430626,0.04134 0.957671,-0.290777 0.82778,-0.521627 1.2895,-0.7916433 1.453203,-0.8505997 0.340975,-0.1227979 0.865511,-0.037004 1.1796,0.1929936 0.07414,0.054251 0.562195,0.4958171 1.083948,0.9811151 1.142409,1.062597 1.378695,1.252087 1.735135,1.389358 0.512741,0.197453 1.413593,0.215774 2.140975,0.04359 0.676547,-0.160146 1.586344,-0.522437 2.213329,-0.881043 0.126132,-0.07214 0.249567,-0.125707 0.273989,-0.119038 0.02439,0.0067 0.03205,0.02094 0.01723,0.03178 -0.146178,0.106698 -0.995498,1.048012 -1.195216,1.324733 -0.508501,0.704557 -0.796659,1.537373 -0.726404,2.098038 0.05009,0.399683 0.19765,0.624301 0.936622,1.42457 0.343242,0.371714 0.767458,0.836626 0.942955,1.033152 l 0.319496,0.357201 -1.458094,1.064135 -1.458093,1.064135 0.884444,0.87893 0.884126,0.878613 1.121189,-0.795634 c 1.739174,-1.234364 2.518966,-1.833509 2.925644,-2.247598 1.11928,-1.139719 1.505449,-2.019595 1.271631,-2.896678 C 26.278627,15.153516 26.142458,14.965734 25.193529,13.926035 24.228472,12.868687 24.1231,12.732167 24.036554,12.428507 23.842755,11.748561 24.23933,10.958556 25.241017,10.029319 25.793842,9.5164786 25.815368,9.3962108 25.430422,8.9744297 25.155048,8.672725 24.912758,8.5344787 24.699342,8.5572442 24.556809,8.5724426 24.238954,8.7122458 23.639891,9.0229136 22.834358,9.4406849 22.195534,9.6046303 21.547162,9.5594819 20.979984,9.5199868 20.85252,9.4570865 20.242776,8.9190498 19.960992,8.6704022 19.40688,8.171711 19.011462,7.810697 18.128563,7.0046653 17.944242,6.8692956 17.516275,6.7110819 16.799949,6.4462706 15.969827,6.4920553 14.902709,6.8555779 14.053856,7.1447465 13.735747,7.3260015 12.256286,8.3649024 11.90035,8.6149372 11.610297,8.8214961 11.373105,8.9948515 Z M 8.5103265,24.343306 8.7433148,24.591573 c 0.4613318,0.492269 1.6099972,1.310243 2.1915592,1.560499 0.843434,0.362945 1.746956,0.40324 2.717246,0.121203 0.80249,-0.233259 1.468079,-0.574337 2.636072,-1.351812 0.390245,-0.259786 0.760526,-0.505711 0.822779,-0.546515 l 0.112801,-0.07428 -0.867898,-0.862487 -0.868219,-0.862806 -0.292242,0.183519 c -0.160685,0.100936 -0.583109,0.380831 -0.938847,0.622025 -1.164226,0.789399 -1.888332,1.148849 -2.702974,1.341684 -0.960339,0.227324 -1.9458909,0.143467 -2.7342539,-0.232249 z m 8.0972165,-2.633456 0.885079,0.879561 0.884764,0.879247 0.798039,-0.575582 0.79804,-0.575584 -0.884762,-0.879247 -0.885081,-0.879562 -0.798039,0.575583 z" /></g></svg>
